<svg xmlns="http://www.w3.org/2000/svg" xmlns:xlink="http://www.w3.org/1999/xlink" viewBox="0 0 228.48 208.62"><defs><style>.cls-1,.cls-2,.cls-5,.cls-6,.cls-7,.cls-8,.cls-9{stroke:#000;}.cls-1,.cls-2,.cls-4,.cls-5,.cls-6,.cls-7,.cls-8,.cls-9{stroke-miterlimit:10;}.cls-1{fill:url(#linear-gradient);}.cls-2{fill:url(#linear-gradient-2);}.cls-3{font-size:39px;stroke:#fbb03b;font-family:PoplarStd, Poplar Std;}.cls-5{fill:url(#linear-gradient-3);}.cls-6{fill:url(#linear-gradient-4);}.cls-7{fill:url(#linear-gradient-5);}.cls-8{fill:url(#linear-gradient-6);}.cls-9{fill:#fff;}</style><linearGradient id="linear-gradient" x1="190.96" y1="164.23" x2="190.96" y2="78.9" gradientUnits="userSpaceOnUse"><stop offset="0.13" stop-color="#ffb900"/><stop offset="0.5" stop-color="#fff"/><stop offset="0.71" stop-color="#ffda7a"/><stop offset="0.85" stop-color="#ffc222"/><stop offset="0.92" stop-color="#ffb900"/></linearGradient><linearGradient id="linear-gradient-2" x1="28.47" y1="78.9" x2="28.47" y2="164.23" xlink:href="#linear-gradient"/><linearGradient id="linear-gradient-3" x1="96.6" y1="75.68" x2="155.58" y2="125.18" gradientUnits="userSpaceOnUse"><stop offset="0.13" stop-color="#fff"/><stop offset="0.25" stop-color="#afafaf"/><stop offset="0.38" stop-color="#656565"/><stop offset="0.48" stop-color="#2e2e2e"/><stop offset="0.55" stop-color="#0d0d0d"/><stop offset="0.59"/></linearGradient><linearGradient id="linear-gradient-4" x1="63.15" y1="130.86" x2="69.92" y2="137.4" gradientUnits="userSpaceOnUse"><stop offset="0.42" stop-color="#fff"/><stop offset="0.57" stop-color="#afafaf"/><stop offset="0.73" stop-color="#656565"/><stop offset="0.85" stop-color="#2e2e2e"/><stop offset="0.95" stop-color="#0d0d0d"/><stop offset="1"/></linearGradient><linearGradient id="linear-gradient-5" x1="71.9" y1="75.68" x2="130.88" y2="125.17" gradientTransform="matrix(-1, 0, 0, 1, 194.3, 0)" xlink:href="#linear-gradient-3"/><linearGradient id="linear-gradient-6" x1="38.45" y1="130.86" x2="45.22" y2="137.4" gradientTransform="matrix(-1, 0, 0, 1, 194.3, 0)" xlink:href="#linear-gradient-4"/></defs><title>logo</title><g id="Layer_2" data-name="Layer 2"><g id="Layer_1-2" data-name="Layer 1"><path class="cls-1" d="M163.42,140.9c0,12.89,11.67,23.33,27.5,23.33a65.15,65.15,0,0,0,13.17-1.12v1.12h14.33V111.17c.18-2.75,0-5.77,0-8.94V78.9H204.09V80a64.2,64.2,0,0,0-13.17-1.14c-15.19,0-27.5,10.45-27.5,23.33,0,8,4.8,15.14,12.1,19.33C168.22,125.76,163.42,132.85,163.42,140.9Zm40.67-51.32v25.9a59.2,59.2,0,0,1-13.17,1.08c-10.2,0-18.5-6.43-18.5-14.33s8.3-14.33,18.5-14.33C197.18,87.9,201.33,88.51,204.09,89.58ZM172.42,140.9c0-7.9,8.3-14.33,18.5-14.33,6.16,0,10.33.46,13.17,1.27v26c-2.81.87-7,1.36-13.17,1.36C180.72,155.23,172.42,148.8,172.42,140.9Z"/><path class="cls-2" d="M43.91,121.56c7.3-4.2,12.1-11.29,12.1-19.33C56,89.34,43.69,78.9,28.51,78.9A64.2,64.2,0,0,0,15.34,80V78.9H1v23.33c0,3.17-.18,6.18,0,8.94v53.06H15.34v-1.12a65.15,65.15,0,0,0,13.17,1.12c15.83,0,27.5-10.45,27.5-23.33C56,132.85,51.21,125.76,43.91,121.56ZM28.51,87.9c10.2,0,18.5,6.43,18.5,14.33s-8.3,14.33-18.5,14.33a59.2,59.2,0,0,1-13.17-1.08V89.58C18.1,88.51,22.25,87.9,28.51,87.9Zm0,67.33c-6.18,0-10.35-.49-13.17-1.36v-26c2.84-.81,7-1.27,13.17-1.27,10.2,0,18.5,6.43,18.5,14.33S38.71,155.23,28.51,155.23Z"/><text class="cls-3" transform="translate(10.48 197.4)"><tspan class="cls-4">Barber </tspan><tspan x="86.66" y="0" xml:space="preserve">           </tspan><tspan class="cls-4" x="129.55" y="0">Books</tspan></text><path class="cls-5" d="M152,16.42l-.15-.13L81.52,93.9c-4.24,5-29.67,31.67-53.05,82.67,36.38-33.33,110-108.74,120.78-123.89a36.42,36.42,0,1,0,5-39.3A36.66,36.66,0,0,0,152,16.42Zm16.13,8.65a18.33,18.33,0,1,1,2.14,25.84A18.33,18.33,0,0,1,168.1,25.07Z"/><path class="cls-6" d="M109.5,96.42,94.18,99.23s-40.86,38.56-65.72,77.33C28.19,176.84,51.89,155.17,109.5,96.42Z"/><path class="cls-7" d="M64.71,13.36a36.46,36.46,0,1,0,5,39.3c10.75,15.15,84.4,90.56,120.78,123.89-23.38-51-48.81-77.67-53.05-82.67L67.19,16.29l-.15.13A36.66,36.66,0,0,0,64.71,13.36ZM48.76,50.9A18.33,18.33,0,1,1,50.9,25.07,18.33,18.33,0,0,1,48.76,50.9Z"/><path class="cls-8" d="M109.5,96.42l15.32,2.81s40.86,38.56,65.72,77.33C190.81,176.83,167.11,155.17,109.5,96.42Z"/><circle class="cls-9" cx="109.5" cy="80.23" r="5.26"/></g></g></svg>