<svg xmlns="http://www.w3.org/2000/svg" viewBox="0 0 72.74 152.22"><defs><style>.cls-1{fill:#c1272d;}.cls-1,.cls-2{stroke:#000;stroke-miterlimit:10;stroke-width:5px;}.cls-2{fill:#fff;}</style></defs><title>pencil</title><g id="Layer_2" data-name="Layer 2"><g id="Layer_1-2" data-name="Layer 1"><polygon class="cls-1" points="70.17 88.45 2.82 88.45 3.15 10.93 70.17 10.93 70.17 88.45"/><polygon class="cls-2" points="35.96 147.31 4.36 93.25 68.33 93.25 35.96 147.31"/><polygon points="36.22 143.14 27.45 127.95 44.99 127.95 36.22 143.14"/><path class="cls-2" d="M10.15,2.5h53a7,7,0,0,1,7,7V22.64a0,0,0,0,1,0,0h-67a0,0,0,0,1,0,0V9.5A7,7,0,0,1,10.15,2.5Z"/></g></g></svg>